<svg width="27" height="21" viewBox="0 0 27 21" fill="none" xmlns="http://www.w3.org/2000/svg">
<path d="M22.962 1.97853C21.2999 1.20373 19.5004 0.641379 17.6259 0.316464C17.6094 0.315938 17.5931 0.319022 17.578 0.3255C17.5628 0.331977 17.5493 0.34169 17.5384 0.353954C17.3134 0.766346 17.051 1.30371 16.8761 1.7161C14.8878 1.41618 12.8659 1.41618 10.8776 1.7161C10.7027 1.29121 10.4402 0.766346 10.2028 0.353954C10.1903 0.328961 10.1528 0.316464 10.1153 0.316464C8.24081 0.641379 6.45378 1.20373 4.77922 1.97853C4.76672 1.97853 4.75423 1.99103 4.74173 2.00352C1.34262 7.08969 0.405366 12.0384 0.867745 16.9371C0.867745 16.9621 0.880241 16.9871 0.905235 16.9996C3.15465 18.6492 5.31658 19.6489 7.45352 20.3112C7.49101 20.3237 7.5285 20.3112 7.541 20.2862C8.04087 19.5989 8.49075 18.8741 8.87815 18.1118C8.90314 18.0618 8.87815 18.0118 8.82816 17.9993C8.11585 17.7244 7.44102 17.3995 6.7787 17.0246C6.72871 16.9996 6.72871 16.9246 6.7662 16.8871C6.90366 16.7872 7.04113 16.6747 7.17859 16.5747C7.20359 16.5497 7.24108 16.5497 7.26607 16.5622C11.5649 18.5242 16.2012 18.5242 20.4501 16.5622C20.4751 16.5497 20.5126 16.5497 20.5376 16.5747C20.6751 16.6872 20.8125 16.7872 20.95 16.8996C21 16.9371 21 17.0121 20.9375 17.0371C20.2877 17.4245 19.6003 17.7369 18.888 18.0118C18.838 18.0243 18.8255 18.0868 18.838 18.1243C19.2379 18.8866 19.6878 19.6114 20.1752 20.2987C20.2127 20.3112 20.2502 20.3237 20.2877 20.3112C22.4371 19.6489 24.599 18.6492 26.8484 16.9996C26.8734 16.9871 26.8859 16.9621 26.8859 16.9371C27.4358 11.2761 25.9737 6.36488 23.0119 2.00352C22.9994 1.99103 22.987 1.97853 22.962 1.97853V1.97853ZM9.52798 13.9504C8.24082 13.9504 7.1661 12.7632 7.1661 11.3011C7.1661 9.83897 8.21582 8.65178 9.52798 8.65178C10.8526 8.65178 11.9024 9.85147 11.8899 11.3011C11.8899 12.7632 10.8401 13.9504 9.52798 13.9504ZM18.2382 13.9504C16.951 13.9504 15.8763 12.7632 15.8763 11.3011C15.8763 9.83897 16.926 8.65178 18.2382 8.65178C19.5629 8.65178 20.6126 9.85147 20.6001 11.3011C20.6001 12.7632 19.5629 13.9504 18.2382 13.9504Z" fill="#F8F6F7"/>
</svg>
