<svg width="25" height="21" viewBox="0 0 25 21" fill="none" xmlns="http://www.w3.org/2000/svg">
<path d="M24.0306 2.61727C23.1403 3.02428 22.1906 3.29675 21.1996 3.43301C22.2161 2.80263 22.9888 1.81819 23.3476 0.635904C22.3999 1.22282 21.3521 1.64022 20.2341 1.87713C19.3248 0.900662 18.0336 0.301332 16.6291 0.311828C13.9043 0.332191 11.7245 2.60952 11.7417 5.38124C11.7442 5.78005 11.7795 6.16327 11.8628 6.52773C7.76975 6.3543 4.13669 4.37658 1.68551 1.3408C1.26554 2.09711 1.02179 2.96101 1.02753 3.88901C1.03831 5.6315 1.92565 7.16955 3.23961 8.05403C2.44876 8.0446 1.67156 7.81571 1.01206 7.45096C1.01215 7.4663 1.01228 7.48624 1.0124 7.50618C1.02753 9.95118 2.74614 11.9693 4.98625 12.4204C4.58632 12.5354 4.15001 12.5923 3.69687 12.5957C3.38177 12.5981 3.06355 12.582 2.76454 12.5168C3.41457 14.5045 5.23321 15.9558 7.3852 15.9873C5.71895 17.3389 3.59776 18.1616 1.29602 18.1788C0.89239 18.1818 0.505152 18.1663 0.117715 18.1186C2.30681 19.5395 4.89571 20.3409 7.68211 20.32C16.739 20.2524 21.6431 12.546 21.602 5.89813C21.6006 5.67571 21.5918 5.46103 21.58 5.2479C22.5524 4.53195 23.3677 3.64076 24.0306 2.61727Z" fill="white"/>
</svg>
